Coordinates
version=1
nRows=15
nColumns=23
inDegrees=yes

Units are S.I. units (second, meters, Newtons, ...)
Angles are in degrees.

endheader
time	thorax_tilt	thorax_list	thorax_rotation	thorax_tx	thorax_ty	thorax_tz	sternoclavicular_r2	sternoclavicular_r3	unrotscap_r3	unrotscap_r2	acromioclavicular_r2	acromioclavicular_r3	acromioclavicular_r1	unrothum_r1	unrothum_r3	unrothum_r2	elv_angle	shoulder_elv	shoulder1_r2	shoulder_rot	elbow_flexion	pro_sup
      2.05600000	     -3.59748029	      2.24801871	     -9.04640502	     -0.40637215	      1.57736294	      0.02831176	     -9.50742956	      4.02386357	     -4.02685508	      9.50489114	     -1.92466955	     15.55274590	      6.99159962	     -6.99148373	    -15.55387872	      1.92439257	     60.38440959	     39.27757004	    -60.38454545	     23.68502531	    102.09125594	      3.20684754
      2.06000000	     -3.89247538	      2.31588823	     -9.09130057	     -0.40625573	      1.57713840	      0.02850868	     -9.46418916	      4.00558750	     -4.00850147	      9.46167993	     -1.91586621	     15.48193572	      6.95972149	     -6.95973593	    -15.48314761	      1.91568612	     60.31752122	     39.09897260	    -60.31769486	     23.70970048	    101.99300305	      3.22909312
      2.06400000	     -4.17661873	      2.36310967	     -9.13914130	     -0.40611885	      1.57689121	      0.02864055	     -9.41599485	      3.98522711	     -3.98804243	      9.41351453	     -1.90608102	     15.40306969	      6.92421347	     -6.92434631	    -15.40430548	      1.90595960	     60.24310974	     38.89973622	    -60.24312480	     23.76107520	    101.90253186	      3.25626226
      2.06800000	     -4.17975725	      1.99495678	     -9.17308568	     -0.40613378	      1.57608693	      0.02838387	     -9.27475322	      3.92518810	     -3.92836383	      9.27226335	     -1.87747896	     15.17184322	      6.82041986	     -6.82037773	    -15.17330284	      1.87736871	     59.93792207	     38.31614954	    -59.93808830	     24.00726852	    101.77947032	      3.47332336
      2.07200000	     -4.43152857	      2.17079616	     -9.23692634	     -0.40588510	      1.57625515	      0.02882559	     -9.21973805	      3.90198644	     -3.90499888	      9.21732095	     -1.86627819	     15.08184185	      6.77989062	     -6.77998496	    -15.08328525	      1.86629817	     59.87799772	     38.08891803	    -59.87796056	     24.03884232	    101.70964079	      3.49786229
      2.07600000	     -4.67104289	      2.27051839	     -9.30707630	     -0.40566055	      1.57618907	      0.02913498	     -9.16371628	      3.87840229	     -3.88123188	      9.16129168	     -1.85497311	     14.99030919	      6.73872991	     -6.73872761	    -14.99149114	      1.85492056	     59.80371040	     37.85673177	    -59.80358777	     24.09978169	    101.63449089	      3.52789798
      2.08000000	     -3.50224093	      1.88244885	     -8.80308642	     -0.40721893	      1.57778995	      0.02844475	     -8.70043771	      3.68227273	     -3.68491083	      8.69804885	     -1.76118991	     14.23227474	      6.39816739	     -6.39787491	    -14.23352098	      1.76107013	     58.27862451	     35.94319821	    -58.27866841	     23.47490653	    101.51511147	      4.96605137
      2.08400000	     -3.81298646	      1.97757959	     -8.87516593	     -0.40689729	      1.57760230	      0.02873885	     -8.65973028	      3.66496705	     -3.66769913	      8.65737769	     -1.75290717	     14.16574793	      6.36800359	     -6.36807706	    -14.16674482	      1.75292348	     58.21120138	     35.77498210	    -58.21108042	     23.55881989	    101.47220146	      4.98991211
      2.08800000	     -4.11104177	      2.04215386	     -8.94951993	     -0.40654262	      1.57734554	      0.02909549	     -8.61555848	      3.64630076	     -3.64896800	      8.61323348	     -1.74392243	     14.09342482	      6.33547972	     -6.33561369	    -14.09448936	      1.74401766	     58.13619435	     35.59195464	    -58.13577562	     23.66004749	    101.41113751	      5.01622774
      2.09200000	     -4.40567551	      2.08891046	     -9.02912182	     -0.40620379	      1.57708326	      0.02928700	     -8.56533349	      3.62509970	     -3.62768749	      8.56303773	     -1.73377168	     14.01134839	      6.29857801	     -6.29867179	    -14.01230119	      1.73384308	     58.05072643	     35.38479539	    -58.05073742	     23.78345927	    101.33173497	      5.04700124
      2.09600000	     -4.68048658	      2.11931863	     -9.11163963	     -0.40584235	      1.57683493	      0.02950841	     -8.51099504	      3.60207505	     -3.60461325	      8.50871309	     -1.72272558	     13.92231750	      6.25846211	     -6.25884169	    -13.92348311	      1.72288501	     57.95863336	     35.16056770	    -57.95842261	     23.92282853	    101.23661533	      5.08136472
      2.10000000	     -4.93943536	      2.13750544	     -9.20064817	     -0.40547111	      1.57659134	      0.02974281	     -8.45074138	      3.57662436	     -3.57909465	      8.44837385	     -1.71060633	     13.82381537	      6.21423654	     -6.21437569	    -13.82470263	      1.71059388	     57.85652012	     34.91062132	    -57.85641653	     24.08157780	    101.12209970	      5.12075366
      2.10400000	     -3.92252646	      1.85154830	     -9.68007309	     -0.40509449	      1.57749782	      0.03058247	     -8.12830673	      3.43965541	     -3.44268213	      8.12553840	     -1.64569268	     13.29616460	      5.97702072	     -5.97728187	    -13.29707822	      1.64496175	     57.18495721	     33.57895143	    -57.18510219	     25.23746748	    100.67890738	      5.58524611
      2.10800000	     -4.23225853	      1.92403453	     -9.78057587	     -0.40461269	      1.57725499	      0.03077669	     -8.08511217	      3.42160216	     -3.42425326	      8.08250163	     -1.63672868	     13.22531475	      5.94519431	     -5.94546868	    -13.22642414	      1.63639729	     57.10893453	     33.40024736	    -57.10906360	     25.25139118	    100.58367056	      5.60447119
      2.11200000	     -4.53520928	      1.97795137	     -9.84359202	     -0.40423957	      1.57700279	      0.03108734	     -8.03646917	      3.40106699	     -3.40364341	      8.03398517	     -1.62680135	     13.14576036	      5.90942353	     -5.90974843	    -13.14693415	      1.62664331	     57.02881362	     33.19951990	    -57.02868777	     25.30875736	    100.46939855	      5.62889428
